<svg id="SvgjsSvg1006" width="463" height="344.75" xmlns="http://www.w3.org/2000/svg" version="1.1" xmlns:xlink="http://www.w3.org/1999/xlink" xmlns:svgjs="http://svgjs.com/svgjs"><defs id="SvgjsDefs1007"><pattern patternUnits="userSpaceOnUse" id="pattern_mark_0" width="300" height="300"><text x="150" y="100" fill="rgba(229,229,229,0.8)" font-size="18" transform="rotate(-45, 150, 150)" style="dominant-baseline: middle; text-anchor: middle;"></text></pattern><pattern patternUnits="userSpaceOnUse" id="pattern_mark_1" width="300" height="300"><text x="150" y="200" fill="rgba(229,229,229,0.8)" font-size="18" transform="rotate(-45, 150, 150)" style="dominant-baseline: middle; text-anchor: middle;"></text></pattern><marker id="SvgjsMarker1067" markerWidth="14" markerHeight="12" refX="16" refY="6" viewBox="0 0 14 12" orient="auto" markerUnits="userSpaceOnUse" stroke-dasharray="0,0"><path id="SvgjsPath1068" d="M1,1 L14,6 L1,11L1,1" fill="#ffffff" stroke="#323232" stroke-width="1.5"></path></marker><marker id="SvgjsMarker1071" markerWidth="14" markerHeight="12" refX="16" refY="6" viewBox="0 0 14 12" orient="auto" markerUnits="userSpaceOnUse" stroke-dasharray="0,0"><path id="SvgjsPath1072" d="M1,1 L14,6 L1,11L1,1" fill="#ffffff" stroke="#323232" stroke-width="1.5"></path></marker></defs><rect id="svgbackgroundid" width="463" height="344.75" fill="transparent"></rect><rect id="SvgjsRect1009" width="463" height="344.75" fill="url(#pattern_mark_0)"></rect><rect id="SvgjsRect1010" width="463" height="344.75" fill="url(#pattern_mark_1)"></rect><g id="SvgjsG1011" transform="translate(25,124.25)"><path id="SvgjsPath1012" d="M 0 4Q 0 0 4 0L 111 0Q 115 0 115 4L 115 78.5Q 115 82.5 111 82.5L 4 82.5Q 0 82.5 0 78.5Z" stroke="rgba(33,41,48,1)" stroke-width="1.5" fill-opacity="1" fill="#e0c431"></path><path id="SvgjsPath1013" d="M 0 30L 115 30" stroke="rgba(33,41,48,1)" stroke-width="1.5" fill="none"></path><path id="SvgjsPath1014" d="M 0 0L 115 0L 115 82.5L 0 82.5Z" stroke="none" fill="none"></path><g id="SvgjsG1015"><text id="SvgjsText1016" font-family="微软雅黑" text-anchor="middle" font-size="13px" width="95px" fill="#323232" font-weight="700" align="middle" lineHeight="125%" anchor="middle" family="微软雅黑" size="13px" weight="700" font-style="" opacity="1" y="4.375" transform="rotate(0)"><tspan id="SvgjsTspan1017" dy="16.25" x="57.5"><tspan id="SvgjsTspan1018" style="">USB</tspan></tspan></text></g><g id="SvgjsG1019"><text id="SvgjsText1020" font-family="微软雅黑" text-anchor="start" font-size="13px" width="95px" fill="#323232" font-weight="400" align="middle" lineHeight="125%" anchor="start" family="微软雅黑" size="13px" weight="400" font-style="" opacity="1" y="37.125" transform="rotate(0)"><tspan id="SvgjsTspan1021" dy="16.25" x="10"><tspan id="SvgjsTspan1022" style="">+ Connect()</tspan></tspan><tspan id="SvgjsTspan1023" dy="16.25" x="10"><tspan id="SvgjsTspan1024" style="">+ Run()</tspan></tspan></text></g></g><g id="SvgjsG1025" transform="translate(273,196.75)"><path id="SvgjsPath1026" d="M 0 4Q 0 0 4 0L 161 0Q 165 0 165 4L 165 119Q 165 123 161 123L 4 123Q 0 123 0 119Z" stroke="rgba(33,41,48,1)" stroke-width="1.5" fill-opacity="1" fill="#ffffff"></path><path id="SvgjsPath1027" d="M 0 30L 165 30M 0 60L 165 60" stroke="rgba(33,41,48,1)" stroke-width="1.5" fill="none"></path><path id="SvgjsPath1028" d="M 0 0L 165 0L 165 123L 0 123Z" stroke="none" fill="none"></path><g id="SvgjsG1029"><text id="SvgjsText1030" font-family="微软雅黑" text-anchor="middle" font-size="13px" width="145px" fill="#323232" font-weight="700" align="middle" lineHeight="125%" anchor="middle" family="微软雅黑" size="13px" weight="700" font-style="" opacity="1" y="4.375" transform="rotate(0)"><tspan id="SvgjsTspan1031" dy="16.25" x="82.5"><tspan id="SvgjsTspan1032" style="">Mouse</tspan></tspan></text></g><g id="SvgjsG1033"><text id="SvgjsText1034" font-family="微软雅黑" text-anchor="start" font-size="13px" width="145px" fill="#323232" font-weight="400" align="middle" lineHeight="125%" anchor="start" family="微软雅黑" size="13px" weight="400" font-style="" opacity="1" y="34.375" transform="rotate(0)"><tspan id="SvgjsTspan1035" dy="16.25" x="10"><tspan id="SvgjsTspan1036" style="">- name string</tspan></tspan></text></g><g id="SvgjsG1037"><text id="SvgjsText1038" font-family="微软雅黑" text-anchor="start" font-size="13px" width="145px" fill="#323232" font-weight="400" align="middle" lineHeight="125%" anchor="start" family="微软雅黑" size="13px" weight="400" font-style="" opacity="1" y="64.375" transform="rotate(0)"><tspan id="SvgjsTspan1039" dy="16.25" x="10"><tspan id="SvgjsTspan1040" style="">+ Connect()</tspan></tspan><tspan id="SvgjsTspan1041" dy="16.25" x="10"><tspan id="SvgjsTspan1042" style="">+ Run()</tspan></tspan><tspan id="SvgjsTspan1043" dy="16.25" x="10"><tspan id="SvgjsTspan1044" style="">+ Click()</tspan></tspan></text></g></g><g id="SvgjsG1045" transform="translate(273,25)"><path id="SvgjsPath1046" d="M 0 4Q 0 0 4 0L 161 0Q 165 0 165 4L 165 119Q 165 123 161 123L 4 123Q 0 123 0 119Z" stroke="rgba(33,41,48,1)" stroke-width="1.5" fill-opacity="1" fill="#ffffff"></path><path id="SvgjsPath1047" d="M 0 30L 165 30M 0 60L 165 60" stroke="rgba(33,41,48,1)" stroke-width="1.5" fill="none"></path><path id="SvgjsPath1048" d="M 0 0L 165 0L 165 123L 0 123Z" stroke="none" fill="none"></path><g id="SvgjsG1049"><text id="SvgjsText1050" font-family="微软雅黑" text-anchor="middle" font-size="13px" width="145px" fill="#323232" font-weight="700" align="middle" lineHeight="125%" anchor="middle" family="微软雅黑" size="13px" weight="700" font-style="" opacity="1" y="4.375" transform="rotate(0)"><tspan id="SvgjsTspan1051" dy="16.25" x="82.5"><tspan id="SvgjsTspan1052" style="">KeyBoard</tspan></tspan></text></g><g id="SvgjsG1053"><text id="SvgjsText1054" font-family="微软雅黑" text-anchor="start" font-size="13px" width="145px" fill="#323232" font-weight="400" align="middle" lineHeight="125%" anchor="start" family="微软雅黑" size="13px" weight="400" font-style="" opacity="1" y="34.375" transform="rotate(0)"><tspan id="SvgjsTspan1055" dy="16.25" x="10"><tspan id="SvgjsTspan1056" style="">- name string</tspan></tspan></text></g><g id="SvgjsG1057"><text id="SvgjsText1058" font-family="微软雅黑" text-anchor="start" font-size="13px" width="145px" fill="#323232" font-weight="400" align="middle" lineHeight="125%" anchor="start" family="微软雅黑" size="13px" weight="400" font-style="" opacity="1" y="64.375" transform="rotate(0)"><tspan id="SvgjsTspan1059" dy="16.25" x="10"><tspan id="SvgjsTspan1060" style="">+ Connect()</tspan></tspan><tspan id="SvgjsTspan1061" dy="16.25" x="10"><tspan id="SvgjsTspan1062" style="">+ Run()</tspan></tspan><tspan id="SvgjsTspan1063" dy="16.25" x="10"><tspan id="SvgjsTspan1064" style="">+ Tap()</tspan></tspan></text></g></g><g id="SvgjsG1065"><path id="SvgjsPath1066" d="M272.35517546288884 86.88301607843448L142.32136833360028 164.12114211763588" stroke-dasharray="8,5" stroke="#323232" stroke-width="1.5" fill="none" marker-end="url(#SvgjsMarker1067)"></path></g><g id="SvgjsG1069"><path id="SvgjsPath1070" d="M272.3848164613263 257.8209904269776L142.21466073922534 167.04443446288082" stroke-dasharray="8,5" stroke="#323232" stroke-width="1.5" fill="none" marker-end="url(#SvgjsMarker1071)"></path></g></svg>