<svg id="SvgjsSvg1006" width="648" height="200" xmlns="http://www.w3.org/2000/svg" version="1.1" xmlns:xlink="http://www.w3.org/1999/xlink" xmlns:svgjs="http://svgjs.com/svgjs"><defs id="SvgjsDefs1007"><pattern patternUnits="userSpaceOnUse" id="pattern_mark_0" width="300" height="300"><text x="150" y="100" fill="rgba(229,229,229,0.8)" font-size="18" transform="rotate(-45, 150, 150)" style="dominant-baseline: middle; text-anchor: middle;"></text></pattern><pattern patternUnits="userSpaceOnUse" id="pattern_mark_1" width="300" height="300"><text x="150" y="200" fill="rgba(229,229,229,0.8)" font-size="18" transform="rotate(-45, 150, 150)" style="dominant-baseline: middle; text-anchor: middle;"></text></pattern><marker id="SvgjsMarker1051" markerWidth="20" markerHeight="12" refX="20" refY="6" viewBox="0 0 20 12" orient="auto" markerUnits="userSpaceOnUse" stroke-dasharray="0,0"><path id="SvgjsPath1052" d="M2,6 L10,2 L18,6 L10,10L2,6" fill="#323232" stroke="#323232" stroke-width="1.5"></path></marker></defs><rect id="svgbackgroundid" width="648" height="200" fill="transparent"></rect><rect id="SvgjsRect1009" width="648" height="200" fill="url(#pattern_mark_0)"></rect><rect id="SvgjsRect1010" width="648" height="200" fill="url(#pattern_mark_1)"></rect><g id="SvgjsG1011" transform="translate(25,25)"><path id="SvgjsPath1012" d="M 0 4Q 0 0 4 0L 314 0Q 318 0 318 4L 318 146Q 318 150 314 150L 4 150Q 0 150 0 146Z" stroke="rgba(33,41,48,1)" stroke-width="1.5" fill-opacity="1" fill="#ffffff"></path><path id="SvgjsPath1013" d="M 0 30L 318 30M 0 81.27272727272728L 318 81.27272727272728" stroke="rgba(33,41,48,1)" stroke-width="1.5" fill="none"></path><path id="SvgjsPath1014" d="M 0 0L 318 0L 318 150L 0 150Z" stroke="none" fill="none"></path><g id="SvgjsG1015"><text id="SvgjsText1016" font-family="微软雅黑" text-anchor="middle" font-size="13px" width="298px" fill="#323232" font-weight="700" align="middle" lineHeight="125%" anchor="middle" family="微软雅黑" size="13px" weight="700" font-style="" opacity="1" y="4.375" transform="rotate(0)"><tspan id="SvgjsTspan1017" dy="16.25" x="159"><tspan id="SvgjsTspan1018" style="">Order</tspan></tspan></text></g><g id="SvgjsG1019"><text id="SvgjsText1020" font-family="微软雅黑" text-anchor="start" font-size="13px" width="298px" fill="#323232" font-weight="400" align="middle" lineHeight="125%" anchor="start" family="微软雅黑" size="13px" weight="400" font-style="" opacity="1" y="36.51136363636364" transform="rotate(0)"><tspan id="SvgjsTspan1021" dy="16.25" x="10"><tspan id="SvgjsTspan1022" style="">- name string</tspan></tspan><tspan id="SvgjsTspan1023" dy="16.25" x="10"><tspan id="SvgjsTspan1024" style="">- orderItem []AbstractOrderItem</tspan></tspan></text></g><g id="SvgjsG1025"><text id="SvgjsText1026" font-family="微软雅黑" text-anchor="start" font-size="13px" width="298px" fill="#323232" font-weight="400" align="middle" lineHeight="125%" anchor="start" family="微软雅黑" size="13px" weight="400" font-style="" opacity="1" y="88.51136363636365" transform="rotate(0)"><tspan id="SvgjsTspan1027" dy="16.25" x="10"><tspan id="SvgjsTspan1028" style="">+ GetName() string</tspan></tspan><tspan id="SvgjsTspan1029" dy="16.25" x="10"><tspan id="SvgjsTspan1030" style="">+ AddOrderItem(orderItem AbstractOrderItem)</tspan></tspan><tspan id="SvgjsTspan1031" dy="16.25" x="10"><tspan id="SvgjsTspan1032" style="">+ Show()</tspan></tspan></text></g></g><g id="SvgjsG1033" transform="translate(469,55)"><path id="SvgjsPath1034" d="M 0 4Q 0 0 4 0L 150 0Q 154 0 154 4L 154 86Q 154 90 150 90L 4 90Q 0 90 0 86Z" stroke="rgba(33,41,48,1)" stroke-width="1.5" fill-opacity="1" fill="#ffffff"></path><path id="SvgjsPath1035" d="M 0 30L 154 30M 0 60L 154 60" stroke="rgba(33,41,48,1)" stroke-width="1.5" fill="none"></path><path id="SvgjsPath1036" d="M 0 0L 154 0L 154 90L 0 90Z" stroke="none" fill="none"></path><g id="SvgjsG1037"><text id="SvgjsText1038" font-family="微软雅黑" text-anchor="middle" font-size="13px" width="134px" fill="#323232" font-weight="700" align="middle" lineHeight="125%" anchor="middle" family="微软雅黑" size="13px" weight="700" font-style="" opacity="1" y="4.375" transform="rotate(0)"><tspan id="SvgjsTspan1039" dy="16.25" x="77"><tspan id="SvgjsTspan1040" style="">OrderItem</tspan></tspan></text></g><g id="SvgjsG1041"><text id="SvgjsText1042" font-family="微软雅黑" text-anchor="start" font-size="13px" width="134px" fill="#323232" font-weight="400" align="middle" lineHeight="125%" anchor="start" family="微软雅黑" size="13px" weight="400" font-style="" opacity="1" y="34.375" transform="rotate(0)"><tspan id="SvgjsTspan1043" dy="16.25" x="10"><tspan id="SvgjsTspan1044" style="">- info string</tspan></tspan></text></g><g id="SvgjsG1045"><text id="SvgjsText1046" font-family="微软雅黑" text-anchor="start" font-size="13px" width="134px" fill="#323232" font-weight="400" align="middle" lineHeight="125%" anchor="start" family="微软雅黑" size="13px" weight="400" font-style="" opacity="1" y="64.375" transform="rotate(0)"><tspan id="SvgjsTspan1047" dy="16.25" x="10"><tspan id="SvgjsTspan1048" style="">+ GetInfo() string</tspan></tspan></text></g></g><g id="SvgjsG1049"><path id="SvgjsPath1050" d="M468.25 100L406 100L406 100L345.25 100" stroke="#323232" stroke-width="1.5" fill="none" marker-end="url(#SvgjsMarker1051)"></path></g></svg>