<svg id="SvgjsSvg1006" width="401.14147909967846" height="273" xmlns="http://www.w3.org/2000/svg" version="1.1" xmlns:xlink="http://www.w3.org/1999/xlink" xmlns:svgjs="http://svgjs.com/svgjs"><defs id="SvgjsDefs1007"><pattern patternUnits="userSpaceOnUse" id="pattern_mark_0" width="300" height="300"><text x="150" y="100" fill="rgba(229,229,229,0.8)" font-size="18" transform="rotate(-45, 150, 150)" style="dominant-baseline: middle; text-anchor: middle;"></text></pattern><pattern patternUnits="userSpaceOnUse" id="pattern_mark_1" width="300" height="300"><text x="150" y="200" fill="rgba(229,229,229,0.8)" font-size="18" transform="rotate(-45, 150, 150)" style="dominant-baseline: middle; text-anchor: middle;"></text></pattern><marker id="SvgjsMarker1039" markerWidth="16" markerHeight="16" refX="11" refY="8" viewBox="0 0 16 16" orient="auto" markerUnits="userSpaceOnUse" stroke-dasharray="0,0"><path id="SvgjsPath1040" d="M0,0 L10,8 L0,16" fill="none" stroke="#323232" stroke-width="1.5"></path></marker></defs><rect id="svgbackgroundid" width="401.14147909967846" height="273" fill="transparent"></rect><rect id="SvgjsRect1009" width="401.14147909967846" height="273" fill="url(#pattern_mark_0)"></rect><rect id="SvgjsRect1010" width="401.14147909967846" height="273" fill="url(#pattern_mark_1)"></rect><g id="SvgjsG1011" transform="translate(25,76)"><path id="SvgjsPath1012" d="M 0 4Q 0 0 4 0L 281 0Q 285 0 285 4L 285 168Q 285 172 281 172L 4 172Q 0 172 0 168Z" stroke="rgba(33,41,48,1)" stroke-width="1.5" fill-opacity="1" fill="#ffffff"></path><path id="SvgjsPath1013" d="M 0 30L 285 30M 0 77L 285 77" stroke="rgba(33,41,48,1)" stroke-width="1.5" fill="none"></path><path id="SvgjsPath1014" d="M 0 0L 285 0L 285 172L 0 172Z" stroke="none" fill="none"></path><g id="SvgjsG1015"><text id="SvgjsText1016" font-family="微软雅黑" text-anchor="middle" font-size="13px" width="265px" fill="#323232" font-weight="700" align="middle" lineHeight="125%" anchor="middle" family="微软雅黑" size="13px" weight="700" font-style="" opacity="1" y="4.375" transform="rotate(0)"><tspan id="SvgjsTspan1017" dy="16.25" x="142.5"><tspan id="SvgjsTspan1018" style="">Node</tspan></tspan></text></g><g id="SvgjsG1019"><text id="SvgjsText1020" font-family="微软雅黑" text-anchor="start" font-size="13px" width="265px" fill="#323232" font-weight="400" align="middle" lineHeight="125%" anchor="start" family="微软雅黑" size="13px" weight="400" font-style="" opacity="1" y="34.375" transform="rotate(0)"><tspan id="SvgjsTspan1021" dy="16.25" x="10"><tspan id="SvgjsTspan1022" style="">+ Name string</tspan></tspan><tspan id="SvgjsTspan1023" dy="16.25" x="10"><tspan id="SvgjsTspan1024" style="">+ ParentNode AbstractNode</tspan></tspan></text></g><g id="SvgjsG1025"><text id="SvgjsText1026" font-family="微软雅黑" text-anchor="start" font-size="13px" width="265px" fill="#323232" font-weight="400" align="middle" lineHeight="125%" anchor="start" family="微软雅黑" size="13px" weight="400" font-style="" opacity="1" y="81.375" transform="rotate(0)"><tspan id="SvgjsTspan1027" dy="16.25" x="10"><tspan id="SvgjsTspan1028" style="">+ GetName() string</tspan></tspan><tspan id="SvgjsTspan1029" dy="16.25" x="10"><tspan id="SvgjsTspan1030" style="">+ SetName(Name string)</tspan></tspan><tspan id="SvgjsTspan1031" dy="16.25" x="10"><tspan id="SvgjsTspan1032" style="">+ GetParentNode() AbstractNode</tspan></tspan><tspan id="SvgjsTspan1033" dy="16.25" x="10"><tspan id="SvgjsTspan1034" style="">+ SetParentNode(SubNode AbstractNode)</tspan></tspan><tspan id="SvgjsTspan1035" dy="16.25" x="10"><tspan id="SvgjsTspan1036" style="">+ PrintToRoot()</tspan></tspan></text></g></g><g id="SvgjsG1037"><path id="SvgjsPath1038" d="M310.75 162L376.14147909967846 162L376.14147909967846 25L167.5 25L167.5 74.5" stroke="#323232" stroke-width="1.5" fill="none" marker-end="url(#SvgjsMarker1039)"></path></g></svg>