<svg id="SvgjsSvg1006" width="638" height="206" xmlns="http://www.w3.org/2000/svg" version="1.1" xmlns:xlink="http://www.w3.org/1999/xlink" xmlns:svgjs="http://svgjs.com/svgjs"><defs id="SvgjsDefs1007"><pattern patternUnits="userSpaceOnUse" id="pattern_mark_0" width="300" height="300"><text x="150" y="100" fill="rgba(229,229,229,0.8)" font-size="18" transform="rotate(-45, 150, 150)" style="dominant-baseline: middle; text-anchor: middle;"></text></pattern><pattern patternUnits="userSpaceOnUse" id="pattern_mark_1" width="300" height="300"><text x="150" y="200" fill="rgba(229,229,229,0.8)" font-size="18" transform="rotate(-45, 150, 150)" style="dominant-baseline: middle; text-anchor: middle;"></text></pattern></defs><rect id="svgbackgroundid" width="638" height="206" fill="transparent"></rect><rect id="SvgjsRect1009" width="638" height="206" fill="url(#pattern_mark_0)"></rect><rect id="SvgjsRect1010" width="638" height="206" fill="url(#pattern_mark_1)"></rect><g id="SvgjsG1011" transform="translate(25,25)"><path id="SvgjsPath1012" d="M 0 4Q 0 0 4 0L 226 0Q 230 0 230 4L 230 152Q 230 156 226 156L 4 156Q 0 156 0 152Z" stroke="rgba(33,41,48,1)" stroke-width="1.5" fill-opacity="1" fill="#ffffff"></path><path id="SvgjsPath1013" d="M 0 30L 230 30M 0 77L 230 77" stroke="rgba(33,41,48,1)" stroke-width="1.5" fill="none"></path><path id="SvgjsPath1014" d="M 0 0L 230 0L 230 156L 0 156Z" stroke="none" fill="none"></path><g id="SvgjsG1015"><text id="SvgjsText1016" font-family="微软雅黑" text-anchor="middle" font-size="13px" width="210px" fill="#323232" font-weight="700" align="middle" lineHeight="125%" anchor="middle" family="微软雅黑" size="13px" weight="700" font-style="" opacity="1" y="4.375" transform="rotate(0)"><tspan id="SvgjsTspan1017" dy="16.25" x="115"><tspan id="SvgjsTspan1018" style="">Girl</tspan></tspan></text></g><g id="SvgjsG1019"><text id="SvgjsText1020" font-family="微软雅黑" text-anchor="start" font-size="13px" width="210px" fill="#323232" font-weight="400" align="middle" lineHeight="125%" anchor="start" family="微软雅黑" size="13px" weight="400" font-style="" opacity="1" y="34.375" transform="rotate(0)"><tspan id="SvgjsTspan1021" dy="16.25" x="10"><tspan id="SvgjsTspan1022" style="">+ Name string</tspan></tspan><tspan id="SvgjsTspan1023" dy="16.25" x="10"><tspan id="SvgjsTspan1024" style="">+ Lovers Human</tspan></tspan></text></g><g id="SvgjsG1025"><text id="SvgjsText1026" font-family="微软雅黑" text-anchor="start" font-size="13px" width="210px" fill="#323232" font-weight="400" align="middle" lineHeight="125%" anchor="start" family="微软雅黑" size="13px" weight="400" font-style="" opacity="1" y="81.375" transform="rotate(0)"><tspan id="SvgjsTspan1027" dy="16.25" x="10"><tspan id="SvgjsTspan1028" style="">+ HaveFun()</tspan></tspan><tspan id="SvgjsTspan1029" dy="16.25" x="10"><tspan id="SvgjsTspan1030" style="">+ GetName() string</tspan></tspan><tspan id="SvgjsTspan1031" dy="16.25" x="10"><tspan id="SvgjsTspan1032" style="">+ SetName(Name string)</tspan></tspan><tspan id="SvgjsTspan1033" dy="16.25" x="10"><tspan id="SvgjsTspan1034" style="">+ SetLovers(Lovers Human)</tspan></tspan></text></g></g><g id="SvgjsG1035" transform="translate(383,25)"><path id="SvgjsPath1036" d="M 0 4Q 0 0 4 0L 226 0Q 230 0 230 4L 230 152Q 230 156 226 156L 4 156Q 0 156 0 152Z" stroke="rgba(33,41,48,1)" stroke-width="1.5" fill-opacity="1" fill="#ffffff"></path><path id="SvgjsPath1037" d="M 0 30L 230 30M 0 77L 230 77" stroke="rgba(33,41,48,1)" stroke-width="1.5" fill="none"></path><path id="SvgjsPath1038" d="M 0 0L 230 0L 230 156L 0 156Z" stroke="none" fill="none"></path><g id="SvgjsG1039"><text id="SvgjsText1040" font-family="微软雅黑" text-anchor="middle" font-size="13px" width="210px" fill="#323232" font-weight="700" align="middle" lineHeight="125%" anchor="middle" family="微软雅黑" size="13px" weight="700" font-style="" opacity="1" y="4.375" transform="rotate(0)"><tspan id="SvgjsTspan1041" dy="16.25" x="115"><tspan id="SvgjsTspan1042" style="">Boy</tspan></tspan></text></g><g id="SvgjsG1043"><text id="SvgjsText1044" font-family="微软雅黑" text-anchor="start" font-size="13px" width="210px" fill="#323232" font-weight="400" align="middle" lineHeight="125%" anchor="start" family="微软雅黑" size="13px" weight="400" font-style="" opacity="1" y="34.375" transform="rotate(0)"><tspan id="SvgjsTspan1045" dy="16.25" x="10"><tspan id="SvgjsTspan1046" style="">+ Name string</tspan></tspan><tspan id="SvgjsTspan1047" dy="16.25" x="10"><tspan id="SvgjsTspan1048" style="">+ Lovers Human</tspan></tspan></text></g><g id="SvgjsG1049"><text id="SvgjsText1050" font-family="微软雅黑" text-anchor="start" font-size="13px" width="210px" fill="#323232" font-weight="400" align="middle" lineHeight="125%" anchor="start" family="微软雅黑" size="13px" weight="400" font-style="" opacity="1" y="81.375" transform="rotate(0)"><tspan id="SvgjsTspan1051" dy="16.25" x="10"><tspan id="SvgjsTspan1052" style="">+ HaveFun()</tspan></tspan><tspan id="SvgjsTspan1053" dy="16.25" x="10"><tspan id="SvgjsTspan1054" style="">+ GetName() string</tspan></tspan><tspan id="SvgjsTspan1055" dy="16.25" x="10"><tspan id="SvgjsTspan1056" style="">+ SetName(Name string)</tspan></tspan><tspan id="SvgjsTspan1057" dy="16.25" x="10"><tspan id="SvgjsTspan1058" style="">+ SetLovers(Lovers Human)</tspan></tspan></text></g></g><g id="SvgjsG1059"><path id="SvgjsPath1060" d="M255.75 103L319 103L319 103L382.25 103" stroke="#323232" stroke-width="1.5" fill="none"></path></g></svg>