<svg id="SvgjsSvg1006" width="514" height="174" xmlns="http://www.w3.org/2000/svg" version="1.1" xmlns:xlink="http://www.w3.org/1999/xlink" xmlns:svgjs="http://svgjs.com/svgjs"><defs id="SvgjsDefs1007"><pattern patternUnits="userSpaceOnUse" id="pattern_mark_0" width="300" height="300"><text x="150" y="100" fill="rgba(229,229,229,0.8)" font-size="18" transform="rotate(-45, 150, 150)" style="dominant-baseline: middle; text-anchor: middle;"></text></pattern><pattern patternUnits="userSpaceOnUse" id="pattern_mark_1" width="300" height="300"><text x="150" y="200" fill="rgba(229,229,229,0.8)" font-size="18" transform="rotate(-45, 150, 150)" style="dominant-baseline: middle; text-anchor: middle;"></text></pattern><marker id="SvgjsMarker1049" markerWidth="20" markerHeight="12" refX="0" refY="6" viewBox="0 0 20 12" orient="0" markerUnits="userSpaceOnUse" stroke-dasharray="0,0"><path id="SvgjsPath1050" d="M2,6 L10,2 L18,6 L10,10L2,6" fill="#ffffff" stroke="#323232" stroke-width="1.5"></path></marker></defs><rect id="svgbackgroundid" width="514" height="174" fill="transparent"></rect><rect id="SvgjsRect1009" width="514" height="174" fill="url(#pattern_mark_0)"></rect><rect id="SvgjsRect1010" width="514" height="174" fill="url(#pattern_mark_1)"></rect><g id="SvgjsG1011" transform="translate(25,25)"><path id="SvgjsPath1012" d="M 0 4Q 0 0 4 0L 209 0Q 213 0 213 4L 213 120Q 213 124 209 124L 4 124Q 0 124 0 120Z" stroke="rgba(33,41,48,1)" stroke-width="1.5" fill-opacity="1" fill="#ffffff"></path><path id="SvgjsPath1013" d="M 0 30L 213 30M 0 77L 213 77" stroke="rgba(33,41,48,1)" stroke-width="1.5" fill="none"></path><path id="SvgjsPath1014" d="M 0 0L 213 0L 213 124L 0 124Z" stroke="none" fill="none"></path><g id="SvgjsG1015"><text id="SvgjsText1016" font-family="微软雅黑" text-anchor="middle" font-size="13px" width="193px" fill="#323232" font-weight="700" align="middle" lineHeight="125%" anchor="middle" family="微软雅黑" size="13px" weight="700" font-style="" opacity="1" y="4.375" transform="rotate(0)"><tspan id="SvgjsTspan1017" dy="16.25" x="106.5"><tspan id="SvgjsTspan1018" style="">MIT</tspan></tspan></text></g><g id="SvgjsG1019"><text id="SvgjsText1020" font-family="微软雅黑" text-anchor="start" font-size="13px" width="193px" fill="#323232" font-weight="400" align="middle" lineHeight="125%" anchor="start" family="微软雅黑" size="13px" weight="400" font-style="" opacity="1" y="34.375" transform="rotate(0)"><tspan id="SvgjsTspan1021" dy="16.25" x="10"><tspan id="SvgjsTspan1022" style="">- name string</tspan></tspan><tspan id="SvgjsTspan1023" dy="16.25" x="10"><tspan id="SvgjsTspan1024" style="">- teacherList []Human</tspan></tspan></text></g><g id="SvgjsG1025"><text id="SvgjsText1026" font-family="微软雅黑" text-anchor="start" font-size="13px" width="193px" fill="#323232" font-weight="400" align="middle" lineHeight="125%" anchor="start" family="微软雅黑" size="13px" weight="400" font-style="" opacity="1" y="81.375" transform="rotate(0)"><tspan id="SvgjsTspan1027" dy="16.25" x="10"><tspan id="SvgjsTspan1028" style="">+ GetName() string</tspan></tspan><tspan id="SvgjsTspan1029" dy="16.25" x="10"><tspan id="SvgjsTspan1030" style="">+ AddTeacher(teacher Human)</tspan></tspan></text></g></g><g id="SvgjsG1031" transform="translate(337,42)"><path id="SvgjsPath1032" d="M 0 4Q 0 0 4 0L 148 0Q 152 0 152 4L 152 86Q 152 90 148 90L 4 90Q 0 90 0 86Z" stroke="rgba(33,41,48,1)" stroke-width="1.5" fill-opacity="1" fill="#ffffff"></path><path id="SvgjsPath1033" d="M 0 30L 152 30M 0 60L 152 60" stroke="rgba(33,41,48,1)" stroke-width="1.5" fill="none"></path><path id="SvgjsPath1034" d="M 0 0L 152 0L 152 90L 0 90Z" stroke="none" fill="none"></path><g id="SvgjsG1035"><text id="SvgjsText1036" font-family="微软雅黑" text-anchor="middle" font-size="13px" width="132px" fill="#323232" font-weight="700" align="middle" lineHeight="125%" anchor="middle" family="微软雅黑" size="13px" weight="700" font-style="" opacity="1" y="4.375" transform="rotate(0)"><tspan id="SvgjsTspan1037" dy="16.25" x="76"><tspan id="SvgjsTspan1038" style="">Teacher</tspan></tspan></text></g><g id="SvgjsG1039"><text id="SvgjsText1040" font-family="微软雅黑" text-anchor="start" font-size="13px" width="132px" fill="#323232" font-weight="400" align="middle" lineHeight="125%" anchor="start" family="微软雅黑" size="13px" weight="400" font-style="" opacity="1" y="34.375" transform="rotate(0)"><tspan id="SvgjsTspan1041" dy="16.25" x="10"><tspan id="SvgjsTspan1042" style="">- name string</tspan></tspan></text></g><g id="SvgjsG1043"><text id="SvgjsText1044" font-family="微软雅黑" text-anchor="start" font-size="13px" width="132px" fill="#323232" font-weight="400" align="middle" lineHeight="125%" anchor="start" family="微软雅黑" size="13px" weight="400" font-style="" opacity="1" y="64.375" transform="rotate(0)"><tspan id="SvgjsTspan1045" dy="16.25" x="10"><tspan id="SvgjsTspan1046" style="">+ GetName() string</tspan></tspan></text></g></g><g id="SvgjsG1047"><path id="SvgjsPath1048" d="M240.25 87L287.5 87L287.5 87L336.25 87" stroke="#323232" stroke-width="1.5" fill="none" marker-start="url(#SvgjsMarker1049)"></path></g></svg>